<svg width="16" height="16" viewBox="0 0 16 16" fill="none" xmlns="http://www.w3.org/2000/svg">
<g clip-path="url(#clip0_51_375)">
<path d="M14.66 2.66667C14.66 1.93334 14.0666 1.33334 13.3333 1.33334H2.66665C1.93331 1.33334 1.33331 1.93334 1.33331 2.66667V10.6667C1.33331 11.4 1.93331 12 2.66665 12H12L14.6666 14.6667L14.66 2.66667ZM11.3333 9.33334H4.66665C4.29998 9.33334 3.99998 9.03334 3.99998 8.66667C3.99998 8.3 4.29998 8 4.66665 8H11.3333C11.7 8 12 8.3 12 8.66667C12 9.03334 11.7 9.33334 11.3333 9.33334ZM11.3333 7.33334H4.66665C4.29998 7.33334 3.99998 7.03334 3.99998 6.66667C3.99998 6.3 4.29998 6 4.66665 6H11.3333C11.7 6 12 6.3 12 6.66667C12 7.03334 11.7 7.33334 11.3333 7.33334ZM11.3333 5.33334H4.66665C4.29998 5.33334 3.99998 5.03334 3.99998 4.66667C3.99998 4.3 4.29998 4 4.66665 4H11.3333C11.7 4 12 4.3 12 4.66667C12 5.03334 11.7 5.33334 11.3333 5.33334Z" fill="#8A8A8A"/>
</g>
<defs>
<clipPath id="clip0_51_375">
<rect width="16" height="16" fill="white"/>
</clipPath>
</defs>
</svg>
