<svg width="24" height="24" fill="none" xmlns="http://www.w3.org/2000/svg"><g clip-path="url(#a)" fill="currentColor"><path d="M3.17 8.83A3.173 3.173 0 0 0 0 12a3.173 3.173 0 0 0 3.17 3.17A3.173 3.173 0 0 0 6.34 12a3.174 3.174 0 0 0-3.17-3.17zM12.155 8.83A3.173 3.173 0 0 0 8.986 12a3.173 3.173 0 0 0 3.17 3.17 3.173 3.173 0 0 0 3.17-3.17 3.174 3.174 0 0 0-3.17-3.17zM20.83 8.83A3.174 3.174 0 0 0 17.66 12a3.173 3.173 0 0 0 3.17 3.17A3.173 3.173 0 0 0 24 12a3.173 3.173 0 0 0-3.17-3.17z"/></g><defs><clipPath id="a"><path fill="#fff" d="M0 0h24v24H0z"/></clipPath></defs></svg>