<svg width="100" height="100" viewBox="0 0 100 100" fill="none" xmlns="http://www.w3.org/2000/svg">
<path fill-rule="evenodd" clip-rule="evenodd" d="M43.2761 21.654C43.774 21.4002 44.458 21.2107 45.7208 21.1075C47.0128 21.0019 48.6785 21 51.1 21H74.9C77.3215 21 78.9873 21.0019 80.2792 21.1075C81.542 21.2107 82.226 21.4002 82.7241 21.654C83.853 22.2292 84.7708 23.147 85.346 24.276L85.346 24.2761C85.5997 24.7741 85.7893 25.458 85.8925 26.7208C85.9981 28.0128 86 29.6785 86 32.1V55.9C86 58.3215 85.9981 59.9873 85.8925 61.2792C85.7893 62.5419 85.5998 63.226 85.346 63.7241L85.3459 63.7241C84.7708 64.8531 83.8531 65.7708 82.7241 66.3459L82.7241 66.346C82.226 66.5997 81.5419 66.7893 80.2792 66.8925C78.9873 66.9981 77.3215 67 74.9 67H71V72H74.9H75.0049C77.296 72 79.1667 72.0001 80.6864 71.8759C82.2584 71.7474 83.6736 71.4738 84.9939 70.8011C87.0638 69.7465 88.7465 68.0638 89.8011 65.9939C90.4738 64.6736 90.7474 63.2584 90.8759 61.6864C91.0001 60.1667 91 58.296 91 56.0049V55.9V32.1V31.9952C91 29.704 91.0001 27.8333 90.8759 26.3136C90.7474 24.7417 90.4738 23.3264 89.8011 22.0062C88.7465 19.9364 87.0639 18.2536 84.994 17.1989L84.9939 17.1989C83.6736 16.5262 82.2584 16.2526 80.6864 16.1241C79.1668 16 77.2961 16 75.0051 16H75.005L74.9 16H51.1L50.995 16H50.995C48.7039 16 46.8333 16 45.3136 16.1241C43.7416 16.2525 42.3264 16.5262 41.0061 17.1989C38.9363 18.2535 37.2535 19.9363 36.1989 22.0061C36.0332 22.3313 35.8917 22.6623 35.7706 23H41.5279C42.0195 22.4504 42.6111 21.9928 43.2761 21.654L43.2761 21.654Z" fill="currentColor"/>
<path d="M59.44 24H24.56C21.7593 24 19.0733 25.1126 17.093 27.093C15.1126 29.0733 14 31.7593 14 34.56V69.44C14 72.2407 15.1126 74.9267 17.093 76.907C19.0733 78.8874 21.7593 80 24.56 80H59.44C62.2407 80 64.9267 78.8874 66.907 76.907C68.8874 74.9267 70 72.2407 70 69.44V34.56C70 31.7593 68.8874 29.0733 66.907 27.093C64.9267 25.1126 62.2407 24 59.44 24ZM64.4 69.44C64.3895 70.7522 63.8636 72.0078 62.9357 72.9357C62.0078 73.8636 60.7522 74.3895 59.44 74.4H24.56C23.2478 74.3895 21.9922 73.8636 21.0643 72.9357C20.1364 72.0078 19.6105 70.7522 19.6 69.44V34.56C19.6105 33.2478 20.1364 31.9922 21.0643 31.0643C21.9922 30.1364 23.2478 29.6105 24.56 29.6H59.44C60.7522 29.6105 62.0078 30.1364 62.9357 31.0643C63.8636 31.9922 64.3895 33.2478 64.4 34.56V69.44ZM44.8 36H39.2V49.24H26V54.84H39.2V68H44.8V54.84H58V49.24H44.8V36Z" fill="currentColor"/>
</svg>
