<svg width="15" height="15" viewBox="0 0 15 15" fill="none" xmlns="http://www.w3.org/2000/svg">
<g clip-path="url(#clip0_12_148)">
<path d="M7.5 3.125C4.58333 3.125 2.09249 4.93917 1.08333 7.5C2.09249 10.0608 4.58333 11.875 7.5 11.875C10.4167 11.875 12.9075 10.0608 13.9167 7.5C12.9075 4.93917 10.4167 3.125 7.5 3.125ZM7.5 10.4167C5.89 10.4167 4.58333 9.11 4.58333 7.5C4.58333 5.89 5.89 4.58333 7.5 4.58333C9.11 4.58333 10.4167 5.89 10.4167 7.5C10.4167 9.11 9.11 10.4167 7.5 10.4167ZM7.5 5.75C6.53166 5.75 5.75 6.53167 5.75 7.5C5.75 8.46833 6.53166 9.25 7.5 9.25C8.46833 9.25 9.25 8.46833 9.25 7.5C9.25 6.53167 8.46833 5.75 7.5 5.75Z" fill="#00E054"/>
</g>
<defs>
<clipPath id="clip0_12_148">
<rect width="14" height="14" fill="white" transform="translate(0.5 0.5)"/>
</clipPath>
</defs>
</svg>
