<svg width="24" height="24" fill="none" xmlns="http://www.w3.org/2000/svg"><path d="M5 22a2.893 2.893 0 0 1-2.125-.875A2.893 2.893 0 0 1 2 19V5c0-.833.292-1.542.875-2.125A2.893 2.893 0 0 1 5 2h14c.833 0 1.542.292 2.125.875S22 4.167 22 5v14c0 .833-.292 1.542-.875 2.125A2.893 2.893 0 0 1 19 22H5zm0-2h14c.283 0 .52-.096.712-.288A.965.965 0 0 0 20 19V5a.968.968 0 0 0-.288-.713A.967.967 0 0 0 19 4H5a.97.97 0 0 0-.713.287A.97.97 0 0 0 4 5v14c0 .283.096.52.287.712.192.192.43.288.713.288zm1-2 4-4 1.8 1.775L14 13l4 5H6zm2-8c-.55 0-1.02-.196-1.412-.588A1.923 1.923 0 0 1 6 8c0-.55.196-1.02.588-1.412A1.923 1.923 0 0 1 8 6c.55 0 1.021.196 1.413.588C9.804 6.979 10 7.45 10 8c0 .55-.196 1.02-.587 1.412A1.927 1.927 0 0 1 8 10z" fill="currentColor"/></svg>