<svg width="32" height="13" viewBox="0 0 32 13" fill="none" xmlns="http://www.w3.org/2000/svg">
<path d="M7.1763 12.6987H4.37306V0.140163H8.63398L9.41888 5.41024H9.53101L10.0917 0.140163H14.3526V12.6987H11.5493V5.18599H11.4372L10.428 12.6987H8.29759L7.1763 5.18599V12.6987Z" fill="currentColor"/>
<path d="M15.4739 0.0280327C15.9224 0.0280327 19.062 -0.0840973 20.7439 0.140161C22.0895 0.252291 22.7623 1.37358 22.8744 2.71914C22.9865 5.18598 22.9865 7.65283 22.9865 10.1197C22.9865 10.3439 22.9865 10.6803 22.8744 11.0167C22.6501 12.0259 22.0895 12.5865 20.7439 12.6987C19.062 12.8108 17.3801 12.8108 15.8103 12.8108C15.8103 12.8108 15.6981 12.8108 15.586 12.8108V0.0280327H15.4739ZM18.8377 2.38275V10.4561C19.3984 10.4561 19.7348 10.2318 19.7348 9.67116C19.7348 7.5407 19.7348 5.29811 19.7348 3.05553C19.7348 2.49488 19.5105 2.27062 18.8377 2.38275Z" fill="currentColor"/>
<path d="M0 12.6987V0.140163H3.25175V12.6987H0Z" fill="currentColor"/>
<path d="M31.2841 4.8496C31.172 3.95256 30.6113 3.50405 29.7143 3.27979C28.8172 3.16766 27.9202 3.27979 27.1353 4.06469V0.140163H23.9957V12.6987H26.911C27.0232 12.4744 27.0232 12.2501 27.1353 12.138C27.1353 12.138 27.1353 12.138 27.2474 12.138C27.3596 12.2501 27.4717 12.3623 27.5838 12.4744C28.3687 13.035 29.2658 13.1472 30.1628 12.8108C30.9477 12.4744 31.2841 11.8016 31.2841 11.0167C31.2841 10.1197 31.3962 9.11051 31.3962 8.10135C31.3962 6.98006 31.3962 5.85876 31.2841 4.8496ZM28.1445 10.4561C28.1445 10.6803 27.9202 10.9046 27.696 10.9046C27.4717 10.9046 27.2474 10.6803 27.2474 10.4561V5.6345C27.2474 5.41024 27.4717 5.18599 27.696 5.18599C27.9202 5.18599 28.1445 5.41024 28.1445 5.6345V10.4561Z" fill="currentColor"/>
</svg>
