<svg width="16" height="15" viewBox="0 0 16 15" fill="none" xmlns="http://www.w3.org/2000/svg">
<g clip-path="url(#clip0_51_42)">
<path d="M15.2921 8.4708L8.42418 8.0073L14.7143 10.5422C15.0007 9.89485 15.1984 9.1992 15.2921 8.4708Z" fill="#6F6F6F"/>
<path d="M13.8817 11.9727C12.5208 13.8099 10.3427 15 7.88778 15C3.76424 15 0.421448 11.6421 0.421448 7.5C0.421448 3.35787 3.76424 0 7.88778 0C10.3472 0 12.529 1.19456 13.8893 3.03759L7.65183 6.39135L11.6657 2.25H9.44078L6.70808 6.06015V2.25H4.90125V12.75H6.70808V8.946L9.44078 12.75H11.6657L7.75608 8.73885L13.8817 11.9727Z" fill="#6F6F6F"/>
<path d="M14.7143 4.45779L8.46808 6.9747L15.2921 6.52905C15.1984 5.8007 15.0006 5.1051 14.7143 4.45779Z" fill="#6F6F6F"/>
</g>
<defs>
<clipPath id="clip0_51_42">
<rect width="15.05" height="15" fill="white" transform="translate(0.396225)"/>
</clipPath>
</defs>
</svg>
