<svg width="15" height="15" viewBox="0 0 15 15" fill="none" xmlns="http://www.w3.org/2000/svg">
<g clip-path="url(#clip0_12_151)">
<path d="M2.83333 8.66666H4C4.32083 8.66666 4.58333 8.40416 4.58333 8.08333V6.91666C4.58333 6.59583 4.32083 6.33333 4 6.33333H2.83333C2.5125 6.33333 2.25 6.59583 2.25 6.91666V8.08333C2.25 8.40416 2.5125 8.66666 2.83333 8.66666ZM2.83333 11.5833H4C4.32083 11.5833 4.58333 11.3208 4.58333 11V9.83333C4.58333 9.5125 4.32083 9.25 4 9.25H2.83333C2.5125 9.25 2.25 9.5125 2.25 9.83333V11C2.25 11.3208 2.5125 11.5833 2.83333 11.5833ZM2.83333 5.75H4C4.32083 5.75 4.58333 5.4875 4.58333 5.16666V4C4.58333 3.67916 4.32083 3.41666 4 3.41666H2.83333C2.5125 3.41666 2.25 3.67916 2.25 4V5.16666C2.25 5.4875 2.5125 5.75 2.83333 5.75ZM5.75 8.66666H12.1667C12.4875 8.66666 12.75 8.40416 12.75 8.08333V6.91666C12.75 6.59583 12.4875 6.33333 12.1667 6.33333H5.75C5.42917 6.33333 5.16667 6.59583 5.16667 6.91666V8.08333C5.16667 8.40416 5.42917 8.66666 5.75 8.66666ZM5.75 11.5833H12.1667C12.4875 11.5833 12.75 11.3208 12.75 11V9.83333C12.75 9.5125 12.4875 9.25 12.1667 9.25H5.75C5.42917 9.25 5.16667 9.5125 5.16667 9.83333V11C5.16667 11.3208 5.42917 11.5833 5.75 11.5833ZM5.16667 4V5.16666C5.16667 5.4875 5.42917 5.75 5.75 5.75H12.1667C12.4875 5.75 12.75 5.4875 12.75 5.16666V4C12.75 3.67916 12.4875 3.41666 12.1667 3.41666H5.75C5.42917 3.41666 5.16667 3.67916 5.16667 4Z" fill="#47BDF2"/>
</g>
<defs>
<clipPath id="clip0_12_151">
<rect width="14" height="14" fill="white" transform="translate(0.5 0.5)"/>
</clipPath>
</defs>
</svg>
