<svg width="340" height="64" viewBox="0 0 340 64" fill="none" xmlns="http://www.w3.org/2000/svg">
<g clip-path="url(#clip0_172_66)">
<path fill-rule="evenodd" clip-rule="evenodd" d="M63.8639 24.5825C63.4988 23.4644 62.4635 22.7115 61.2851 22.7115H40.8842L34.5821 3.30813V3.3044C34.2131 2.18627 33.1778 1.43333 31.9995 1.43333C30.8249 1.43333 29.7858 2.18627 29.4206 3.30817L23.1148 22.7115H2.71383C1.5355 22.7115 0.500167 23.4644 0.135 24.5825C-0.230167 25.7006 0.161333 26.9204 1.1176 27.6168L17.6258 39.6112L11.3199 59.0183C10.9548 60.1402 11.3576 61.3599 12.3138 62.0489C12.7882 62.3915 13.3454 62.5651 13.9025 62.5651C14.4597 62.5651 15.0169 62.3914 15.495 62.0451L31.9995 50.0545L48.5002 62.0451C49.4526 62.7378 50.7364 62.7378 51.6889 62.0489C52.6451 61.3599 53.0442 60.1402 52.679 59.0145L46.3731 39.6112L62.8851 27.6169C63.8376 26.9204 64.2329 25.7006 63.8639 24.5825" fill="#554300"/>
</g>
<g clip-path="url(#clip1_172_66)">
<path fill-rule="evenodd" clip-rule="evenodd" d="M132.864 24.5825C132.499 23.4644 131.463 22.7115 130.285 22.7115H109.884L103.582 3.30813V3.3044C103.213 2.18627 102.178 1.43333 100.999 1.43333C99.8249 1.43333 98.7858 2.18627 98.4206 3.30817L92.1148 22.7115H71.7138C70.5355 22.7115 69.5002 23.4644 69.135 24.5825C68.7698 25.7006 69.1613 26.9204 70.1176 27.6168L86.6258 39.6112L80.3199 59.0183C79.9548 60.1402 80.3576 61.3599 81.3138 62.0489C81.7882 62.3915 82.3454 62.5651 82.9025 62.5651C83.4597 62.5651 84.0169 62.3914 84.495 62.0451L100.999 50.0545L117.5 62.0451C118.453 62.7378 119.736 62.7378 120.689 62.0489C121.645 61.3599 122.044 60.1402 121.679 59.0145L115.373 39.6112L131.885 27.6169C132.838 26.9204 133.233 25.7006 132.864 24.5825" fill="#554300"/>
</g>
<g clip-path="url(#clip2_172_66)">
<path fill-rule="evenodd" clip-rule="evenodd" d="M201.864 24.5825C201.499 23.4644 200.463 22.7115 199.285 22.7115H178.884L172.582 3.30813V3.3044C172.213 2.18627 171.178 1.43333 169.999 1.43333C168.825 1.43333 167.786 2.18627 167.421 3.30817L161.115 22.7115H140.714C139.535 22.7115 138.5 23.4644 138.135 24.5825C137.77 25.7006 138.161 26.9204 139.118 27.6168L155.626 39.6112L149.32 59.0183C148.955 60.1402 149.358 61.3599 150.314 62.0489C150.788 62.3915 151.345 62.5651 151.902 62.5651C152.46 62.5651 153.017 62.3914 153.495 62.0451L169.999 50.0545L186.5 62.0451C187.453 62.7378 188.736 62.7378 189.689 62.0489C190.645 61.3599 191.044 60.1402 190.679 59.0145L184.373 39.6112L200.885 27.6169C201.838 26.9204 202.233 25.7006 201.864 24.5825" fill="#554300"/>
</g>
<g clip-path="url(#clip3_172_66)">
<path fill-rule="evenodd" clip-rule="evenodd" d="M270.864 24.5825C270.499 23.4644 269.463 22.7115 268.285 22.7115H247.884L241.582 3.30813V3.3044C241.213 2.18627 240.178 1.43333 238.999 1.43333C237.825 1.43333 236.786 2.18627 236.421 3.30817L230.115 22.7115H209.714C208.536 22.7115 207.5 23.4644 207.135 24.5825C206.77 25.7006 207.161 26.9204 208.118 27.6168L224.626 39.6112L218.32 59.0183C217.955 60.1402 218.358 61.3599 219.314 62.0489C219.788 62.3915 220.345 62.5651 220.903 62.5651C221.46 62.5651 222.017 62.3914 222.495 62.0451L238.999 50.0545L255.5 62.0451C256.453 62.7378 257.736 62.7378 258.689 62.0489C259.645 61.3599 260.044 60.1402 259.679 59.0145L253.373 39.6112L269.885 27.6169C270.838 26.9204 271.233 25.7006 270.864 24.5825" fill="#554300"/>
</g>
<g clip-path="url(#clip4_172_66)">
<path fill-rule="evenodd" clip-rule="evenodd" d="M339.864 24.5825C339.499 23.4644 338.463 22.7115 337.285 22.7115H316.884L310.582 3.30813V3.3044C310.213 2.18627 309.178 1.43333 307.999 1.43333C306.825 1.43333 305.786 2.18627 305.421 3.30817L299.115 22.7115H278.714C277.536 22.7115 276.5 23.4644 276.135 24.5825C275.77 25.7006 276.161 26.9204 277.118 27.6168L293.626 39.6112L287.32 59.0183C286.955 60.1402 287.358 61.3599 288.314 62.0489C288.788 62.3915 289.345 62.5651 289.903 62.5651C290.46 62.5651 291.017 62.3914 291.495 62.0451L307.999 50.0545L324.5 62.0451C325.453 62.7378 326.736 62.7378 327.689 62.0489C328.645 61.3599 329.044 60.1402 328.679 59.0145L322.373 39.6112L338.885 27.6169C339.838 26.9204 340.233 25.7006 339.864 24.5825" fill="#554300"/>
</g>
<defs>
<clipPath id="clip0_172_66">
<rect width="64" height="64" fill="white"/>
</clipPath>
<clipPath id="clip1_172_66">
<rect width="64" height="64" fill="white" transform="translate(69)"/>
</clipPath>
<clipPath id="clip2_172_66">
<rect width="64" height="64" fill="white" transform="translate(138)"/>
</clipPath>
<clipPath id="clip3_172_66">
<rect width="64" height="64" fill="white" transform="translate(207)"/>
</clipPath>
<clipPath id="clip4_172_66">
<rect width="64" height="64" fill="white" transform="translate(276)"/>
</clipPath>
</defs>
</svg>
