<svg width="340" height="64" fill="none" xmlns="http://www.w3.org/2000/svg"><g clip-path="url(#a)"><path fill-rule="evenodd" clip-rule="evenodd" d="M63.864 24.582a2.707 2.707 0 0 0-2.579-1.87h-20.4L34.581 3.308v-.004a2.715 2.715 0 0 0-5.161.004l-6.306 19.404H2.714a2.707 2.707 0 0 0-2.579 1.87 2.705 2.705 0 0 0 .983 3.035L17.626 39.61 11.32 59.018a2.7 2.7 0 0 0 .994 3.03 2.713 2.713 0 0 0 1.588.517 2.71 2.71 0 0 0 1.593-.52L32 50.055l16.5 11.99a2.712 2.712 0 0 0 3.189.004 2.701 2.701 0 0 0 .99-3.035l-6.306-19.403 16.512-11.994a2.703 2.703 0 0 0 .979-3.035" fill="#FFC800"/></g><g clip-path="url(#b)"><path fill-rule="evenodd" clip-rule="evenodd" d="M132.864 24.582a2.707 2.707 0 0 0-2.579-1.87h-20.401l-6.302-19.404v-.004a2.715 2.715 0 0 0-5.161.004l-6.306 19.404H71.714a2.707 2.707 0 0 0-2.579 1.87 2.705 2.705 0 0 0 .983 3.035L86.626 39.61 80.32 59.018a2.7 2.7 0 0 0 .994 3.03 2.713 2.713 0 0 0 1.589.517 2.71 2.71 0 0 0 1.592-.52l16.504-11.99 16.501 11.99a2.713 2.713 0 0 0 3.189.004 2.702 2.702 0 0 0 .99-3.035l-6.306-19.403 16.512-11.994a2.702 2.702 0 0 0 .979-3.035" fill="#FFC800"/></g><g clip-path="url(#c)"><path fill-rule="evenodd" clip-rule="evenodd" d="M201.864 24.582a2.707 2.707 0 0 0-2.579-1.87h-20.401l-6.302-19.404v-.004a2.715 2.715 0 0 0-5.161.004l-6.306 19.404h-20.401a2.706 2.706 0 0 0-2.579 1.87 2.704 2.704 0 0 0 .983 3.035l16.508 11.994-6.306 19.407a2.7 2.7 0 0 0 .994 3.03 2.71 2.71 0 0 0 1.588.517 2.71 2.71 0 0 0 1.593-.52l16.504-11.99 16.501 11.99a2.713 2.713 0 0 0 3.189.004 2.702 2.702 0 0 0 .99-3.035l-6.306-19.403 16.512-11.994a2.702 2.702 0 0 0 .979-3.035" fill="#FFC800"/></g><g clip-path="url(#d)"><path fill-rule="evenodd" clip-rule="evenodd" d="M270.864 24.582a2.707 2.707 0 0 0-2.579-1.87h-20.401l-6.302-19.404v-.004a2.715 2.715 0 0 0-5.161.004l-6.306 19.404h-20.401a2.707 2.707 0 0 0-2.579 1.87 2.704 2.704 0 0 0 .983 3.035l16.508 11.994-6.306 19.407a2.7 2.7 0 0 0 .994 3.03 2.71 2.71 0 0 0 1.589.517c.557 0 1.114-.174 1.592-.52l16.504-11.99 16.501 11.99a2.713 2.713 0 0 0 3.189.004 2.702 2.702 0 0 0 .99-3.035l-6.306-19.403 16.512-11.994a2.702 2.702 0 0 0 .979-3.035" fill="#FFC800"/></g><g clip-path="url(#e)"><path fill-rule="evenodd" clip-rule="evenodd" d="M339.864 24.582a2.707 2.707 0 0 0-2.579-1.87h-20.401l-6.302-19.404v-.004a2.715 2.715 0 0 0-5.161.004l-6.306 19.404h-20.401a2.707 2.707 0 0 0-2.579 1.87 2.704 2.704 0 0 0 .983 3.035l16.508 11.994-6.306 19.407a2.7 2.7 0 0 0 .994 3.03 2.71 2.71 0 0 0 1.589.517c.557 0 1.114-.174 1.592-.52l16.504-11.99 16.501 11.99a2.713 2.713 0 0 0 3.189.004 2.702 2.702 0 0 0 .99-3.035l-6.306-19.403 16.512-11.994a2.702 2.702 0 0 0 .979-3.035" fill="#FFC800"/></g><defs><clipPath id="a"><path fill="#fff" d="M0 0h64v64H0z"/></clipPath><clipPath id="b"><path fill="#fff" transform="translate(69)" d="M0 0h64v64H0z"/></clipPath><clipPath id="c"><path fill="#fff" transform="translate(138)" d="M0 0h64v64H0z"/></clipPath><clipPath id="d"><path fill="#fff" transform="translate(207)" d="M0 0h64v64H0z"/></clipPath><clipPath id="e"><path fill="#fff" transform="translate(276)" d="M0 0h64v64H0z"/></clipPath></defs></svg>